<svg xmlns="http://www.w3.org/2000/svg" viewBox="0 0 720 520">
<defs>
<radialGradient id="bg2" cx="0.38" cy="0.42" r="0.95">
<stop offset="0" stop-color="#E0554E"/><stop offset="0.5" stop-color="#C4342E"/><stop offset="1" stop-color="#8E1D19"/>
</radialGradient>
<radialGradient id="core" cx="0.5" cy="0.5" r="0.5">
<stop offset="0" stop-color="#FFFFFF"/><stop offset="0.35" stop-color="#FFE8D9" stop-opacity="0.9"/><stop offset="1" stop-color="#FFE8D9" stop-opacity="0"/>
</radialGradient>
</defs>
<rect width="720" height="520" fill="url(#bg2)"/>
<g fill="none" stroke="#F4EDE1">
<circle cx="274" cy="218" r="60" stroke-opacity="0.75" stroke-width="1.6"/>
<circle cx="274" cy="218" r="110" stroke-opacity="0.5" stroke-width="1.4"/>
<circle cx="274" cy="218" r="170" stroke-opacity="0.32" stroke-width="1.2"/>
<circle cx="274" cy="218" r="240" stroke-opacity="0.18" stroke-width="1"/>
<circle cx="274" cy="218" r="320" stroke-opacity="0.09" stroke-width="1"/>
</g>
<circle cx="274" cy="218" r="90" fill="url(#core)"/>
<circle cx="274" cy="218" r="13" fill="#FFFFFF"/>
<g fill="#F4EDE1">
<circle cx="470" cy="120" r="4" opacity="0.9"/>
<circle cx="560" cy="250" r="3" opacity="0.7"/>
<circle cx="500" cy="380" r="5" opacity="0.8"/>
<circle cx="620" cy="170" r="2.5" opacity="0.6"/>
<circle cx="150" cy="420" r="3" opacity="0.6"/>
<circle cx="640" cy="430" r="3.5" opacity="0.7"/>
</g>
<g stroke="#F4EDE1" stroke-width="1.2" opacity="0.55">
<path d="M470,120 l14,-14 M470,120 l-14,14" fill="none"/>
<path d="M500,380 l16,0 M500,380 l-16,0 M500,380 l0,16 M500,380 l0,-16" fill="none"/>
</g>
</svg>